# xmcd
#
# Track frame offsets:
#	150
#	15292
#	35252
#	52927
#	72672
#	88082
#	100807
#	115417
#	130567
#	148887
#
# Disc length: 2293 seconds
#
# Revision: 0
# Processed by: cddbd v1.4PL0 Copyright (c) Steve Scherf et al.
# Submitted via: dBpowerAMP V4.0
#
DISCID=8208f30a
DTITLE=Tony Lewis - Another Country
DYEAR=1995
DGENRE=Country
TTITLE0=That was someone else you saw
TTITLE1=Pieces of a broken Heart
TTITLE2=Boot-Scootin' Mademoiselle (Lost in Austin)
TTITLE3=The wrong Side of Goodbye
TTITLE4=Back Home again (Duett with Stella Parton)
TTITLE5=Friends behind Bars
TTITLE6=The best is yet to come
TTITLE7=Two more pairs of feet
TTITLE8=Tequila Tears
TTITLE9=Mississipi Crossing
EXTD=
EXTT0=
EXTT1=
EXTT2=
EXTT3=
EXTT4=
EXTT5=
EXTT6=
EXTT7=
EXTT8=
EXTT9=
PLAYORDER=
